<?xml version="1.0" standalone="no"?><!DOCTYPE svg PUBLIC "-//W3C//DTD SVG 1.1//EN" "http://www.w3.org/Graphics/SVG/1.1/DTD/svg11.dtd"><svg t="1588692346199" class="icon" viewBox="0 0 1024 1024" version="1.1" xmlns="http://www.w3.org/2000/svg" p-id="2314" xmlns:xlink="http://www.w3.org/1999/xlink" width="200" height="200"><defs><style type="text/css"></style></defs><path d="M1022.037333 194.944a426.666667 426.666667 0 0 1-120.533333 33.066667 211.541333 211.541333 0 0 0 92.288-116.181334c-40.576 23.68-85.546667 40.917333-133.418667 50.517334a209.92 209.92 0 0 0-357.717333 191.232C328.149333 345.344 173.482667 261.546667 69.973333 134.869333a205.738667 205.738667 0 0 0-28.416 105.6c0 72.96 37.12 137.088 93.354667 174.762667a209.237333 209.237333 0 0 1-95.061333-26.282667v2.602667a210.048 210.048 0 0 0 168.362666 205.952 213.162667 213.162667 0 0 1-94.378666 3.626667 210.645333 210.645333 0 0 0 196.437333 145.792 421.034667 421.034667 0 0 1-260.352 89.813333c-16.64 0-33.237333-0.981333-49.92-2.858667a597.12 597.12 0 0 0 322.432 94.250667c386.304 0 597.290667-319.829333 597.290667-596.736 0-8.917333 0-17.92-0.64-26.88a423.936 423.936 0 0 0 104.96-108.714667l-2.005334-0.853333z" fill="#1DA1F2" p-id="2315"></path></svg>