<?xml version="1.0" standalone="no"?><!DOCTYPE svg PUBLIC "-//W3C//DTD SVG 1.1//EN" "http://www.w3.org/Graphics/SVG/1.1/DTD/svg11.dtd"><svg t="1588692274109" class="icon" viewBox="0 0 1024 1024" version="1.1" xmlns="http://www.w3.org/2000/svg" p-id="1475" xmlns:xlink="http://www.w3.org/1999/xlink" width="200" height="200"><defs><style type="text/css"></style></defs><path d="M910.17216 316.81536c-4.3008-35.87072-38.10304-70.26688-73.472-74.87488a2632.63232 2632.63232 0 0 0-649.3696 0c-35.39968 4.59776-69.20192 39.00416-73.50272 74.87488-15.22688 131.46112-15.22688 258.92864 0 390.35904 4.3008 35.87072 38.10304 70.2976 73.50272 74.87488a2632.63232 2632.63232 0 0 0 649.3696 0c35.36896-4.56704 69.1712-39.00416 73.472-74.87488 15.22688-131.42016 15.22688-258.89792 0-390.35904zM443.72992 648.5504V375.48032l204.8 136.54016-204.8 136.52992z" p-id="1476" fill="#FF0000"></path></svg>